<svg viewBox="0 0 48 48" fill="none" xmlns="http://www.w3.org/2000/svg">
  <rect width="48" height="48" rx="8" fill="#FF0000"/>
  <path d="M36.83 18.48s-.26-1.85-1.06-2.66c-1.01-1.06-2.14-1.07-2.66-1.13-3.71-.27-9.28-.27-9.28-.27h-.01s-5.57 0-9.28.27c-.52.06-1.65.07-2.66 1.13-.8.81-1.06 2.66-1.06 2.66s-.27 2.17-.27 4.34v2.03c0 2.17.27 4.34.27 4.34s.26 1.85 1.06 2.66c1.01 1.06 2.34 1.03 2.93 1.14 2.13.2 9.02.27 9.02.27s5.58-.01 9.28-.28c.52-.06 1.65-.07 2.66-1.13.8-.81 1.06-2.66 1.06-2.66s.27-2.17.27-4.34v-2.03c0-2.17-.27-4.34-.27-4.34zM20.5 27.07v-7.65l7.16 3.84-7.16 3.81z" fill="white"/>
</svg>
